<?xml version="1.0" encoding="iso-8859-1"?>
<!-- Generator: Adobe Illustrator 19.0.0, SVG Export Plug-In . SVG Version: 6.00 Build 0)  -->
<svg version="1.1" id="Layer_1" xmlns="http://www.w3.org/2000/svg" xmlns:xlink="http://www.w3.org/1999/xlink" x="0px" y="0px"
	 viewBox="0 0 330.102 330.102" style="enable-background:new 0 0 330.102 330.102;" xml:space="preserve">
<path id="XMLID_506_" d="M315,300.051h-15v-90h15.102c8.284,0,15-6.716,15-15c0-8.284-6.716-15-15-15H285h-22v-45
	c0-8.284-6.716-15-15-15h-78.02v-30h55.039c8.284,0,15-6.716,15-15v-60c0-8.284-6.716-15-15-15H154.98c-8.284,0-15,6.716-15,15v60
	v45H82c-8.284,0-15,6.716-15,15v45H45H15.102c-8.284,0-15,6.716-15,15c0,8.284,6.716,15,15,15H30v90H15c-8.284,0-15,6.716-15,15
	c0,8.284,6.716,15,15,15h30h240h30c8.284,0,15-6.716,15-15C330,306.767,323.284,300.051,315,300.051z M210.02,60.051H169.98v-30
	h40.039V60.051z M97,150.051h136v30H97V150.051z M180,300.051v-15.007c0-8.284-6.716-15-15-15s-15,6.716-15,15v15.007H60v-90h22h166
	h22v90H180z"/>
<g>
</g>
<g>
</g>
<g>
</g>
<g>
</g>
<g>
</g>
<g>
</g>
<g>
</g>
<g>
</g>
<g>
</g>
<g>
</g>
<g>
</g>
<g>
</g>
<g>
</g>
<g>
</g>
<g>
</g>
</svg>
